<svg width="16" height="16" viewBox="0 0 16 16" fill="none" xmlns="http://www.w3.org/2000/svg">
<path d="M8 13.5H3C2.86739 13.5 2.74021 13.4473 2.64645 13.3536C2.55268 13.2598 2.5 13.1326 2.5 13V8C2.5 7.86739 2.55268 7.74021 2.64645 7.64645C2.74021 7.55268 2.86739 7.5 3 7.5H8M8 13.5V7.5M8 13.5H13C13.1326 13.5 13.2598 13.4473 13.3536 13.3536C13.4473 13.2598 13.5 13.1326 13.5 13V8C13.5 7.86739 13.4473 7.74021 13.3536 7.64645C13.2598 7.55268 13.1326 7.5 13 7.5H8M10.5 8V10M8.5 3V5M5.5 8V10M4.5 3V7.5H11.5V3C11.5 2.86739 11.4473 2.74021 11.3536 2.64645C11.2598 2.55268 11.1326 2.5 11 2.5H5C4.86739 2.5 4.74021 2.55268 4.64645 2.64645C4.55268 2.74021 4.5 2.86739 4.5 3Z" stroke="white"/>
</svg>
