<svg width="24" height="24" viewBox="0 0 24 24" fill="none" xmlns="http://www.w3.org/2000/svg">
<path d="M10.031 9.75H14.031M12.031 7.75V11.75M3.71903 23.25L1.87303 20.942C1.28913 20.2105 0.971713 19.302 0.973027 18.366V13.625C0.973025 13.261 1.11734 12.9119 1.37434 12.6541C1.63134 12.3964 1.98005 12.2511 2.34403 12.25C2.70862 12.2503 3.0582 12.3952 3.31601 12.653C3.57381 12.9108 3.71876 13.2604 3.71903 13.625V17.177M17.031 10.75C17.031 12.0761 16.5042 13.3479 15.5666 14.2855C14.6289 15.2232 13.3571 15.75 12.031 15.75C10.7049 15.75 9.43317 15.2232 8.49549 14.2855C7.55781 13.3479 7.03103 12.0761 7.03103 10.75C7.03103 7 12.031 0.75 12.031 0.75C12.031 0.75 17.031 7 17.031 10.75Z" stroke="white" stroke-width="1.5" stroke-linecap="round" stroke-linejoin="round"/>
<path d="M7.84405 23.125V20.375C7.84376 19.5599 7.60229 18.7631 7.15005 18.085L6.10005 16.516C6.01067 16.367 5.89199 16.2377 5.75118 16.1359C5.61038 16.0342 5.45039 15.962 5.28089 15.9239C5.11139 15.8857 4.93592 15.8824 4.76509 15.914C4.59426 15.9457 4.43163 16.0117 4.28705 16.108C4.027 16.2818 3.83925 16.5444 3.75898 16.8467C3.67872 17.1489 3.71145 17.4701 3.85105 17.75L5.09105 19.813M20.281 23.25L22.127 20.942C22.711 20.21 23.028 19.302 23.027 18.366V13.625C23.027 13.2603 22.8822 12.9106 22.6243 12.6527C22.3665 12.3949 22.0167 12.25 21.652 12.25C21.2875 12.2503 20.9379 12.3952 20.6801 12.653C20.4223 12.9108 20.2773 13.2604 20.277 13.625V17.177" stroke="white" stroke-width="1.5" stroke-linecap="round" stroke-linejoin="round"/>
<path d="M16.156 23.125V20.375C16.156 19.56 16.398 18.763 16.85 18.085L17.9 16.516C17.9895 16.3671 18.1082 16.238 18.249 16.1363C18.3898 16.0346 18.5498 15.9625 18.7193 15.9243C18.8887 15.8862 19.0641 15.8828 19.2349 15.9144C19.4058 15.946 19.5684 16.0118 19.713 16.108C19.9729 16.2819 20.1605 16.5445 20.2408 16.8468C20.321 17.149 20.2884 17.4701 20.149 17.75L18.909 19.813" stroke="white" stroke-width="1.5" stroke-linecap="round" stroke-linejoin="round"/>
</svg>
